<svg xmlns="http://www.w3.org/2000/svg" viewBox="0 0 512 512">
  <!-- Background -->
  <rect width="512" height="512" fill="#3D2810"/>
  <rect width="512" height="512" fill="#5C3D1E" opacity="0.4"/>

  <!-- Tail -->
  <ellipse cx="256" cy="448" rx="110" ry="38" fill="#2A1C0C"/>
  <line x1="180" y1="448" x2="332" y2="448" stroke="#3D2810" stroke-width="3" opacity="0.6"/>
  <line x1="190" y1="435" x2="322" y2="435" stroke="#3D2810" stroke-width="2.5" opacity="0.5"/>
  <line x1="190" y1="461" x2="322" y2="461" stroke="#3D2810" stroke-width="2.5" opacity="0.5"/>
  <rect x="196" y="418" width="120" height="60" rx="4" fill="none" stroke="#4A3220" stroke-width="1.5" opacity="0.5"/>

  <!-- Body -->
  <ellipse cx="256" cy="310" rx="108" ry="120" fill="#8B5E3C"/>
  <!-- Belly -->
  <ellipse cx="256" cy="330" rx="62" ry="75" fill="#C49A6C"/>

  <!-- Front paws -->
  <ellipse cx="185" cy="390" rx="22" ry="14" fill="#7A5230"/>
  <ellipse cx="327" cy="390" rx="22" ry="14" fill="#7A5230"/>
  <line x1="172" y1="400" x2="168" y2="408" stroke="#5C3D1E" stroke-width="2.5" stroke-linecap="round"/>
  <line x1="182" y1="403" x2="180" y2="411" stroke="#5C3D1E" stroke-width="2.5" stroke-linecap="round"/>
  <line x1="193" y1="402" x2="193" y2="410" stroke="#5C3D1E" stroke-width="2.5" stroke-linecap="round"/>
  <line x1="316" y1="400" x2="316" y2="408" stroke="#5C3D1E" stroke-width="2.5" stroke-linecap="round"/>
  <line x1="327" y1="403" x2="327" y2="411" stroke="#5C3D1E" stroke-width="2.5" stroke-linecap="round"/>
  <line x1="338" y1="400" x2="341" y2="408" stroke="#5C3D1E" stroke-width="2.5" stroke-linecap="round"/>

  <!-- Neck -->
  <rect x="218" y="195" width="76" height="45" rx="18" fill="#8B5E3C"/>

  <!-- Head -->
  <circle cx="256" cy="180" r="92" fill="#9B6A42"/>

  <!-- Ears -->
  <ellipse cx="186" cy="116" rx="24" ry="28" fill="#7A5230"/>
  <ellipse cx="186" cy="116" rx="14" ry="18" fill="#C87E5A"/>
  <ellipse cx="326" cy="116" rx="24" ry="28" fill="#7A5230"/>
  <ellipse cx="326" cy="116" rx="14" ry="18" fill="#C87E5A"/>

  <!-- Eyes -->
  <circle cx="222" cy="168" r="18" fill="#1A1008"/>
  <circle cx="290" cy="168" r="18" fill="#1A1008"/>
  <circle cx="226" cy="163" r="5" fill="#FFFFFF" opacity="0.9"/>
  <circle cx="294" cy="163" r="5" fill="#FFFFFF" opacity="0.9"/>

  <!-- Nose -->
  <ellipse cx="256" cy="196" rx="12" ry="9" fill="#2A1C0C"/>
  <ellipse cx="256" cy="194" rx="7" ry="5" fill="#4A2E1A"/>

  <!-- Cheek blush -->
  <ellipse cx="210" cy="195" rx="18" ry="12" fill="#C87E5A" opacity="0.35"/>
  <ellipse cx="302" cy="195" rx="18" ry="12" fill="#C87E5A" opacity="0.35"/>

  <!-- Teeth -->
  <rect x="240" y="202" width="15" height="22" rx="3" fill="#F5E6C8"/>
  <rect x="258" y="202" width="15" height="22" rx="3" fill="#F5E6C8"/>
  <rect x="242" y="204" width="4" height="10" rx="2" fill="#FFFFFF" opacity="0.5"/>
  <rect x="260" y="204" width="4" height="10" rx="2" fill="#FFFFFF" opacity="0.5"/>

  <!-- Task list badge on belly -->
  <rect x="226" y="280" width="60" height="32" rx="10" fill="#5C3D1E" opacity="0.85"/>
  <line x1="234" y1="289" x2="278" y2="289" stroke="#F5E6C8" stroke-width="2.5" stroke-linecap="round" opacity="0.9"/>
  <line x1="234" y1="296" x2="270" y2="296" stroke="#F5E6C8" stroke-width="2.5" stroke-linecap="round" opacity="0.7"/>
  <line x1="234" y1="303" x2="265" y2="303" stroke="#F5E6C8" stroke-width="2.5" stroke-linecap="round" opacity="0.5"/>
  <polyline points="234,289 237,292 243,285" fill="none" stroke="#E8B96A" stroke-width="2.5" stroke-linecap="round" stroke-linejoin="round"/>
</svg>
